<svg xmlns="http://www.w3.org/2000/svg" width="24" height="24" viewBox="0 0 24 24" fill="none">
  <path d="M22.5431 3.27496L22.5696 3.26917V3.06383H17.1585L12.1341 14.8729L7.1096 3.06395H1.27858V3.26917L1.3047 3.27496C2.29234 3.49791 2.79392 3.83037 2.79392 5.02926V19.0659C2.79392 20.265 2.29049 20.5974 1.30273 20.8204L1.27661 20.8262V21.032H5.23286V20.8269L5.20662 20.821C4.21898 20.5982 3.71752 20.2656 3.71752 19.0667V5.84347L10.1719 21.032H10.538L17.1804 5.41999V19.4133C17.0958 20.3603 16.5989 20.6527 15.7045 20.8546L15.678 20.8608V21.0643H22.5696V20.8608L22.5431 20.8546C21.6477 20.6527 21.1389 20.3603 21.0543 19.4133L21.0497 5.02926H21.0543C21.0543 3.83037 21.5557 3.49791 22.5431 3.27496Z" fill="#808088"/>
</svg>
