<svg width="31" height="32" viewBox="0 0 31 32" fill="none" xmlns="http://www.w3.org/2000/svg">
<path d="M28.0099 16.5136C27.1802 20.3457 25.3235 22.6568 24.4543 23.6839L30.6568 31.2494H20.6025L18.8049 28.958C17.0074 30.6765 14.4197 32 10.1926 32C7.38765 32 4.87901 31.4667 2.62716 29.2346C0.829627 27.437 0 25.3235 0 22.7753C0 20.1481 0.790123 17.758 2.76543 15.8222C3.16049 15.4667 4.48395 14.2025 6.63703 13.3531C4.74074 11.5556 4.40494 9.65926 4.40494 8.11852C4.40494 5.25432 5.59012 3.41728 6.69629 2.37037C7.84197 1.22469 9.95555 0 13.6494 0C15.8815 0 18.2716 0.572839 19.8519 1.79753C21.3926 2.98272 22.5383 5.0963 22.5383 7.46667C22.5383 10.5086 20.7802 13.4519 17.3432 14.9728L20.2469 18.4099C20.6815 17.7975 20.958 17.1259 21.0765 16.5136H28.0099ZM10.8247 18.6074C10.2914 18.8642 9.81728 19.2593 9.42222 19.6543C8.71111 20.3654 8.45432 20.9778 8.45432 21.9852C8.45432 22.7753 8.59259 23.3877 9.20493 24C9.95555 24.7506 10.7852 24.8296 11.6148 24.8296C12.5037 24.8296 13.4519 24.6519 14.6963 23.6839L10.8247 18.6074ZM15.3481 9.38272C15.8222 8.90864 16.2173 8.19753 16.2173 7.40741C16.2173 6.79506 15.9605 6.08395 15.5654 5.68889C15.1704 5.29383 14.4593 5.11605 13.8864 5.11605C13.3531 5.11605 12.7012 5.33333 12.3062 5.68889C11.9111 6.08395 11.6938 6.79506 11.6938 7.3679C11.6938 8.15802 12.0889 8.80988 12.4839 9.3037C12.9185 9.83704 12.879 9.73827 13.4914 10.5284C13.8074 10.3901 14.7753 9.91605 15.3481 9.38272Z" fill="#000112"/>
</svg>
